<svg width="16" height="16" viewBox="0 0 16 16" fill="none" xmlns="http://www.w3.org/2000/svg">
<path fill-rule="evenodd" clip-rule="evenodd" d="M2.7235 6L3.20872 0.90519L3.29492 0H4.20421H11.0614H11.9706L12.0568 0.905191L12.5421 6H14.1328H15.2656L15.1251 7.12403L14.1251 15.124L14.0156 16H13.1328H2.13278H1.25L1.1405 15.124L0.140504 7.12403L0 6H1.13278H2.7235ZM4.73254 6H10.533L10.1521 2H5.1135L4.73254 6ZM3.01556 14L2.26556 8H13L12.25 14H3.01556ZM8.13278 9.5V12.5H10.1328V9.5H8.13278ZM5.13278 12.5L5.13278 9.5H7.13278L7.13278 12.5H5.13278Z" fill="#BDBDBD"/>
</svg>
